<svg width="11" height="14" viewBox="0 0 11 14" fill="none" xmlns="http://www.w3.org/2000/svg">
<path d="M2.86111 6.19876H7.43889V4.4821C7.43889 3.85027 7.21536 3.31083 6.76832 2.86378C6.32127 2.41673 5.78183 2.19321 5.15 2.19321C4.51817 2.19321 3.97873 2.41673 3.53168 2.86378C3.08464 3.31083 2.86111 3.85027 2.86111 4.4821V6.19876ZM10.3 7.0571V12.2071C10.3 12.4455 10.2166 12.6482 10.0497 12.8151C9.88276 12.982 9.68009 13.0654 9.44167 13.0654H0.858333C0.619907 13.0654 0.417245 12.982 0.250347 12.8151C0.0834491 12.6482 0 12.4455 0 12.2071V7.0571C0 6.81867 0.0834491 6.61601 0.250347 6.44911C0.417245 6.28221 0.619907 6.19876 0.858333 6.19876H1.14444V4.4821C1.14444 3.38534 1.53785 2.44355 2.32465 1.65675C3.11146 0.869944 4.05324 0.476541 5.15 0.476541C6.24676 0.476541 7.18854 0.869944 7.97535 1.65675C8.76215 2.44355 9.15556 3.38534 9.15556 4.4821V6.19876H9.44167C9.68009 6.19876 9.88276 6.28221 10.0497 6.44911C10.2166 6.61601 10.3 6.81867 10.3 7.0571Z" fill="#35CB43"/>
</svg>
