<svg width="30" height="30" viewBox="0 0 30 30" fill="none" xmlns="http://www.w3.org/2000/svg">
<rect width="30" height="30" fill="white"/>
<path d="M9.19056 20.4791H11.7178V12.8819H9.19056V20.4791ZM11.8819 10.5393C11.8746 10.1598 11.7434 9.846 11.4881 9.59787C11.2328 9.34974 10.8936 9.22567 10.4706 9.22567C10.0476 9.22567 9.70294 9.34974 9.43672 9.59787C9.1705 9.846 9.03739 10.1598 9.03739 10.5393C9.03739 10.9115 9.16686 11.2235 9.42578 11.4753C9.68471 11.727 10.022 11.8529 10.4378 11.8529H10.4487C10.879 11.8529 11.2255 11.727 11.4881 11.4753C11.7506 11.2235 11.8819 10.9115 11.8819 10.5393ZM18.2821 20.4791H20.8094V16.1222C20.8094 14.9983 20.5432 14.1481 20.0107 13.5716C19.4783 12.9951 18.7745 12.7068 17.8992 12.7068C16.9073 12.7068 16.1451 13.1337 15.6127 13.9876H15.6345V12.8819H13.1073C13.1292 13.3636 13.1292 15.896 13.1073 20.4791H15.6345V16.2317C15.6345 15.9544 15.6601 15.75 15.7111 15.6187C15.8205 15.3632 15.9846 15.1461 16.2034 14.9673C16.4223 14.7885 16.6921 14.6991 17.013 14.6991C17.8591 14.6991 18.2821 15.272 18.2821 16.4178V20.4791ZM23.4023 9.55408V20.0631C23.4023 20.9316 23.0942 21.6741 22.4778 22.2908C21.8615 22.9075 21.1194 23.2158 20.2514 23.2158H9.74853C8.88058 23.2158 8.13845 22.9075 7.52213 22.2908C6.90581 21.6741 6.59766 20.9316 6.59766 20.0631V9.55408C6.59766 8.68563 6.90581 7.94306 7.52213 7.32638C8.13845 6.70971 8.88058 6.40137 9.74853 6.40137H20.2514C21.1194 6.40137 21.8615 6.70971 22.4778 7.32638C23.0942 7.94306 23.4023 8.68563 23.4023 9.55408Z" fill="black"/>
</svg>
