<svg width="37" height="36" viewBox="0 0 37 36" fill="none" xmlns="http://www.w3.org/2000/svg">
<rect width="36" height="36" transform="translate(0.799805)" fill="#344B9B"/>
<path d="M27.9756 13.6445C28.3975 15.1211 28.3975 18.2852 28.3975 18.2852C28.3975 18.2852 28.3975 21.4141 27.9756 22.9258C27.7646 23.7695 27.0967 24.4023 26.2881 24.6133C24.7764 25 18.7998 25 18.7998 25C18.7998 25 12.7881 25 11.2764 24.6133C10.4678 24.4023 9.7998 23.7695 9.58887 22.9258C9.16699 21.4141 9.16699 18.2852 9.16699 18.2852C9.16699 18.2852 9.16699 15.1211 9.58887 13.6445C9.7998 12.8008 10.4678 12.1328 11.2764 11.9219C12.7881 11.5 18.7998 11.5 18.7998 11.5C18.7998 11.5 24.7764 11.5 26.2881 11.9219C27.0967 12.1328 27.7646 12.8008 27.9756 13.6445ZM16.8311 21.1328L21.8232 18.2852L16.8311 15.4375V21.1328Z" fill="white"/>
</svg>
