<svg width="30" height="30" viewBox="0 0 30 30" fill="none" xmlns="http://www.w3.org/2000/svg">
<rect width="30" height="30" fill="white"/>
<path d="M22.6465 11.0371C22.998 12.2676 22.998 14.9043 22.998 14.9043C22.998 14.9043 22.998 17.5117 22.6465 18.7715C22.4707 19.4746 21.9141 20.002 21.2402 20.1777C19.9805 20.5 15 20.5 15 20.5C15 20.5 9.99023 20.5 8.73047 20.1777C8.05664 20.002 7.5 19.4746 7.32422 18.7715C6.97266 17.5117 6.97266 14.9043 6.97266 14.9043C6.97266 14.9043 6.97266 12.2676 7.32422 11.0371C7.5 10.334 8.05664 9.77734 8.73047 9.60156C9.99023 9.25 15 9.25 15 9.25C15 9.25 19.9805 9.25 21.2402 9.60156C21.9141 9.77734 22.4707 10.334 22.6465 11.0371ZM13.3594 17.2773L17.5195 14.9043L13.3594 12.5312V17.2773Z" fill="black"/>
</svg>
