<svg width="30" height="30" viewBox="0 0 30 30" fill="none" xmlns="http://www.w3.org/2000/svg">
<rect width="30" height="30" fill="white"/>
<path d="M22.2656 14.875C22.2656 18.5078 19.5996 21.5254 16.1133 22.0527V16.9844H17.8125L18.1348 14.875H16.1133V13.5273C16.1133 12.9414 16.4062 12.3848 17.3145 12.3848H18.2227V10.5977C18.2227 10.5977 17.4023 10.4512 16.582 10.4512C14.9414 10.4512 13.8574 11.4766 13.8574 13.293V14.875H12.0117V16.9844H13.8574V22.0527C10.3711 21.5254 7.73438 18.5078 7.73438 14.875C7.73438 10.8613 10.9863 7.60938 15 7.60938C19.0137 7.60938 22.2656 10.8613 22.2656 14.875Z" fill="black"/>
</svg>
