<svg width="30" height="30" viewBox="0 0 30 30" fill="none" xmlns="http://www.w3.org/2000/svg">
<rect width="30" height="30" fill="white"/>
<path d="M22.5074 18.8431L20.1787 16.9945C19.7011 16.614 19.0126 16.6637 18.5907 17.105L17.5259 18.2264C17.1867 18.5824 16.694 18.5824 16.208 18.4989C14.6116 18.2204 12.0195 15.8445 11.5251 13.816C11.4086 13.3367 11.439 12.8373 11.7976 12.4981L12.9189 11.4332C13.3619 11.0122 13.4092 10.3254 13.0295 9.8453L11.1808 7.5166C10.7421 6.96563 9.92363 6.91839 9.42497 7.41704L8.0041 8.83791C6.83973 10.0023 6.85745 11.6805 7.40166 13.2339C8.99971 17.7868 13.9676 21.8908 16.7933 22.6256C18.3872 23.0408 20.0249 23.1876 21.1894 22.0232L22.6102 20.6023C23.1072 20.1053 23.0616 19.2844 22.5107 18.8465L22.5074 18.8431Z" fill="black"/>
</svg>
