<svg width="30" height="30" viewBox="0 0 30 30" fill="none" xmlns="http://www.w3.org/2000/svg">
<rect width="30" height="30" fill="white"/>
<path d="M21.4987 20.6105V13.5169H20.0217C20.1676 13.9766 20.2405 14.4546 20.2405 14.9509C20.2405 15.8704 20.0071 16.7188 19.5403 17.4961C19.0735 18.2733 18.439 18.8881 17.6366 19.3406C16.8343 19.7931 15.9591 20.0193 15.0109 20.0193C13.5741 20.0193 12.3451 19.5249 11.324 18.536C10.3028 17.5471 9.79229 16.3521 9.79229 14.9509C9.79229 14.4546 9.86523 13.9766 10.0111 13.5169H8.46849V20.6105C8.46849 20.8002 8.53231 20.9589 8.65995 21.0866C8.78759 21.2144 8.94622 21.2782 9.13586 21.2782H20.8313C21.0136 21.2782 21.1704 21.2144 21.3017 21.0866C21.433 20.9589 21.4987 20.8002 21.4987 20.6105ZM17.4014 17.091C17.4014 17.091 17.5664 16.9314 17.8965 16.6121C18.2265 16.2928 18.3915 15.6807 18.3915 14.7758C18.3915 13.8708 18.0615 13.0991 17.4014 12.4605C16.7413 11.8219 15.9445 11.5026 15.0109 11.5026C14.0846 11.5026 13.2914 11.8219 12.6314 12.4605C11.9713 13.0991 11.6412 13.8708 11.6412 14.7758C11.6412 15.6807 11.9713 16.4525 12.6314 17.091C13.2914 17.7296 14.0846 18.0489 15.0109 18.0489C15.9445 18.0489 16.7413 17.7296 17.4014 17.091ZM21.4987 10.8349V9.02863C21.4987 8.82429 21.4257 8.64731 21.2798 8.4977C21.134 8.3481 20.9553 8.27329 20.7438 8.27329H18.8401C18.6286 8.27329 18.4499 8.3481 18.304 8.4977C18.1581 8.64731 18.0852 8.82429 18.0852 9.02863V10.8349C18.0852 11.0465 18.1581 11.2253 18.304 11.3713C18.4499 11.5172 18.6286 11.5902 18.8401 11.5902H20.7438C20.9553 11.5902 21.134 11.5172 21.2798 11.3713C21.4257 11.2253 21.4987 11.0465 21.4987 10.8349ZM23.4023 8.55791V21.0593C23.4023 21.6504 23.1908 22.1576 22.7678 22.5809C22.3447 23.0042 21.8378 23.2158 21.247 23.2158H8.75294C8.16215 23.2158 7.65524 23.0042 7.23221 22.5809C6.80917 22.1576 6.59766 21.6504 6.59766 21.0593V8.55791C6.59766 7.96678 6.80917 7.45957 7.23221 7.03629C7.65524 6.61301 8.16215 6.40137 8.75294 6.40137H21.247C21.8378 6.40137 22.3447 6.61301 22.7678 7.03629C23.1908 7.45957 23.4023 7.96678 23.4023 8.55791Z" fill="black"/>
</svg>
