<svg width="37" height="36" viewBox="0 0 37 36" fill="none" xmlns="http://www.w3.org/2000/svg">
<rect width="36" height="36" transform="translate(0.599609)" fill="#344B9B"/>
<path d="M11.6291 24.5753H14.6618V15.4587H11.6291V24.5753ZM14.8587 12.6476C14.85 12.1922 14.6924 11.8156 14.3861 11.5178C14.0797 11.2201 13.6728 11.0712 13.1651 11.0712C12.6575 11.0712 12.2439 11.2201 11.9245 11.5178C11.605 11.8156 11.4453 12.1922 11.4453 12.6476C11.4453 13.0942 11.6006 13.4686 11.9113 13.7707C12.222 14.0728 12.6268 14.2239 13.1257 14.2239H13.1389C13.6553 14.2239 14.071 14.0728 14.3861 13.7707C14.7012 13.4686 14.8587 13.0942 14.8587 12.6476ZM22.539 24.5753H25.5717V19.3471C25.5717 17.9984 25.2522 16.9781 24.6133 16.2863C23.9744 15.5945 23.1297 15.2485 22.0795 15.2485C20.8891 15.2485 19.9745 15.7609 19.3356 16.7855H19.3618V15.4587H16.3291C16.3554 16.0367 16.3554 19.0756 16.3291 24.5753H19.3618V19.4784C19.3618 19.1456 19.3925 18.9004 19.4537 18.7428C19.585 18.4363 19.7819 18.1757 20.0445 17.9612C20.3071 17.7466 20.6309 17.6393 21.016 17.6393C22.0313 17.6393 22.539 18.3268 22.539 19.7017V24.5753ZM28.6832 11.4653V24.0761C28.6832 25.1183 28.3134 26.0093 27.5738 26.7494C26.8342 27.4894 25.9437 27.8594 24.9021 27.8594H12.2986C11.2571 27.8594 10.3665 27.4894 9.62695 26.7494C8.88737 26.0093 8.51758 25.1183 8.51758 24.0761V11.4653C8.51758 10.4231 8.88737 9.53206 9.62695 8.79205C10.3665 8.05204 11.2571 7.68204 12.2986 7.68204H24.9021C25.9437 7.68204 26.8342 8.05204 27.5738 8.79205C28.3134 9.53206 28.6832 10.4231 28.6832 11.4653Z" fill="white"/>
</svg>
