<svg width="30" height="30" viewBox="0 0 30 30" fill="none" xmlns="http://www.w3.org/2000/svg">
<rect width="30" height="30" fill="white"/>
<path d="M21.2605 8.73926H8.73922C7.58609 8.73926 6.65234 9.67394 6.65234 10.8261V19.1745C6.65234 19.7277 6.87172 20.2583 7.2636 20.6501C7.65454 21.0411 8.18515 21.2614 8.73922 21.2614H21.2605C21.8146 21.2614 22.3452 21.0411 22.7361 20.6501C23.128 20.2583 23.3474 19.7276 23.3474 19.1745V10.8261C23.3474 10.273 23.128 9.74239 22.7361 9.35051C22.3452 8.95958 21.8146 8.73926 21.2605 8.73926ZM21.6477 20.1412L16.4822 15.6244L16.2094 15.8194L16.2112 15.8184C15.4856 16.3369 14.5106 16.3369 13.7851 15.8184L13.5123 15.6244L8.35035 20.1412C8.00347 20.0015 7.75879 19.6865 7.70815 19.3162L12.6414 15.001L7.69615 11.4723V10.8263C7.69709 10.6388 7.74865 10.4551 7.84709 10.2948L7.99615 10.3988L14.3936 14.9692C14.7564 15.2279 15.2439 15.2279 15.6067 14.9692L22.1635 10.3127C22.2545 10.4692 22.3032 10.6464 22.3041 10.8264V11.4667L17.358 15.0012L22.2902 19.3164C22.2396 19.6858 21.9949 20.0008 21.649 20.1414L21.6477 20.1412Z" fill="black"/>
</svg>
