<svg width="37" height="36" viewBox="0 0 37 36" fill="none" xmlns="http://www.w3.org/2000/svg">
<rect width="36" height="36" transform="translate(0.200195)" fill="#344B9B"/>
<path d="M26.9189 18.25C26.9189 22.6094 23.7197 26.2305 19.5361 26.8633V20.7812H21.5752L21.9619 18.25H19.5361V16.6328C19.5361 15.9297 19.8877 15.2617 20.9775 15.2617H22.0674V13.1172C22.0674 13.1172 21.083 12.9414 20.0986 12.9414C18.1299 12.9414 16.8291 14.1719 16.8291 16.3516V18.25H14.6143V20.7812H16.8291V26.8633C12.6455 26.2305 9.48145 22.6094 9.48145 18.25C9.48145 13.4336 13.3838 9.53125 18.2002 9.53125C23.0166 9.53125 26.9189 13.4336 26.9189 18.25Z" fill="white"/>
</svg>
