<svg width="36" height="36" viewBox="0 0 36 36" fill="none" xmlns="http://www.w3.org/2000/svg">
<rect width="36" height="36" fill="#344B9B"/>
<path d="M25.7982 24.7329V16.2206H24.0258C24.2009 16.7723 24.2884 17.346 24.2884 17.9415C24.2884 19.0449 24.0083 20.063 23.4482 20.9957C22.888 21.9283 22.1265 22.6662 21.1638 23.2091C20.201 23.7521 19.1507 24.0236 18.0129 24.0236C16.2887 24.0236 14.8139 23.4303 13.5886 22.2436C12.3632 21.057 11.7506 19.6229 11.7506 17.9415C11.7506 17.346 11.8381 16.7723 12.0131 16.2206H10.162V24.7329C10.162 24.9606 10.2386 25.1511 10.3917 25.3044C10.5449 25.4576 10.7353 25.5343 10.9628 25.5343H24.9973C25.2162 25.5343 25.4043 25.4576 25.5619 25.3044C25.7194 25.1511 25.7982 24.9606 25.7982 24.7329ZM20.8815 20.5096C20.8815 20.5096 21.0795 20.3181 21.4756 19.9349C21.8716 19.5518 22.0697 18.8172 22.0697 17.7313C22.0697 16.6454 21.6736 15.7193 20.8815 14.953C20.0894 14.1867 19.1332 13.8035 18.0129 13.8035C16.9014 13.8035 15.9495 14.1867 15.1574 14.953C14.3653 15.7193 13.9693 16.6454 13.9693 17.7313C13.9693 18.8172 14.3653 19.7433 15.1574 20.5096C15.9495 21.2759 16.9014 21.659 18.0129 21.659C19.1332 21.659 20.0894 21.2759 20.8815 20.5096ZM25.7982 13.0022V10.8347C25.7982 10.5895 25.7107 10.3772 25.5356 10.1976C25.3606 10.0181 25.1461 9.92834 24.8923 9.92834H22.6079C22.3541 9.92834 22.1397 10.0181 21.9646 10.1976C21.7896 10.3772 21.7021 10.5895 21.7021 10.8347V13.0022C21.7021 13.2562 21.7896 13.4708 21.9646 13.6459C22.1397 13.8211 22.3541 13.9086 22.6079 13.9086H24.8923C25.1461 13.9086 25.3606 13.8211 25.5356 13.6459C25.7107 13.4708 25.7982 13.2562 25.7982 13.0022ZM28.0826 10.2699V25.2715C28.0826 25.9809 27.8288 26.5895 27.3211 27.0975C26.8135 27.6054 26.2052 27.8594 25.4962 27.8594H10.5033C9.79439 27.8594 9.18609 27.6054 8.67845 27.0975C8.17081 26.5895 7.91699 25.9809 7.91699 25.2715V10.2699C7.91699 9.56052 8.17081 8.95188 8.67845 8.44394C9.18609 7.936 9.79439 7.68204 10.5033 7.68204H25.4962C26.2052 7.68204 26.8135 7.936 27.3211 8.44394C27.8288 8.95188 28.0826 9.56052 28.0826 10.2699Z" fill="white"/>
</svg>
